<svg width="389" height="60" viewBox="0 0 389 60" fill="none" xmlns="http://www.w3.org/2000/svg">
<path d="M57.3899 44.54C53.1419 44.54 49.8659 43.316 47.5619 40.868C45.2939 38.384 44.1599 34.748 44.1599 29.96C44.1599 25.208 45.2579 21.59 47.4539 19.106C49.6859 16.622 52.8179 15.38 56.8499 15.38C58.7219 15.38 60.7019 15.578 62.7899 15.974C63.2939 16.082 63.7079 16.352 64.0319 16.784C64.3919 17.18 64.5719 17.648 64.5719 18.188C64.5719 18.62 64.3739 18.962 63.9779 19.214C63.6179 19.466 63.2219 19.538 62.7899 19.43C60.9539 18.962 59.0639 18.728 57.1199 18.728C51.3599 18.728 48.4799 22.472 48.4799 29.96C48.4799 33.848 49.2359 36.692 50.7479 38.492C52.2599 40.292 54.5639 41.192 57.6599 41.192C59.6759 41.192 61.5119 40.922 63.1679 40.382C63.5639 40.238 63.9419 40.292 64.3019 40.544C64.6619 40.796 64.8419 41.138 64.8419 41.57C64.8419 42.11 64.6799 42.596 64.3559 43.028C64.0319 43.46 63.5999 43.748 63.0599 43.892C61.3679 44.324 59.4779 44.54 57.3899 44.54ZM74.3548 43.406C73.9588 43.802 73.4728 44 72.8968 44C72.3208 44 71.8168 43.802 71.3848 43.406C70.9888 43.01 70.7908 42.524 70.7908 41.948V5.552C70.7908 4.976 70.9888 4.49 71.3848 4.094C71.8168 3.698 72.3208 3.5 72.8968 3.5C73.4728 3.5 73.9588 3.698 74.3548 4.094C74.7508 4.49 74.9488 4.976 74.9488 5.552V20.132C74.9488 20.168 74.9668 20.186 75.0028 20.186C75.0388 20.186 75.0748 20.168 75.1108 20.132C77.7028 16.964 80.7088 15.38 84.1288 15.38C87.4048 15.38 89.7808 16.298 91.2568 18.134C92.7328 19.934 93.4708 22.976 93.4708 27.26V41.948C93.4708 42.524 93.2728 43.01 92.8768 43.406C92.5168 43.802 92.0488 44 91.4728 44C90.8968 44 90.4108 43.802 90.0148 43.406C89.6188 43.01 89.4208 42.524 89.4208 41.948V27.962C89.4208 24.326 88.9348 21.896 87.9628 20.672C87.0268 19.412 85.3888 18.782 83.0488 18.782C81.1768 18.782 79.3588 19.682 77.5948 21.482C75.8308 23.246 74.9488 25.064 74.9488 26.936V41.948C74.9488 42.524 74.7508 43.01 74.3548 43.406ZM109.688 18.512C104.684 18.512 101.948 21.482 101.48 27.422C101.48 27.71 101.642 27.854 101.966 27.854H116.492C116.78 27.854 116.924 27.71 116.924 27.422C116.708 21.482 114.296 18.512 109.688 18.512ZM110.822 44.54C106.394 44.54 103.028 43.334 100.724 40.922C98.4199 38.474 97.2676 34.82 97.2676 29.96C97.2676 24.956 98.3659 21.284 100.562 18.944C102.794 16.568 105.836 15.38 109.688 15.38C116.78 15.38 120.542 19.574 120.974 27.962C121.01 28.826 120.704 29.564 120.056 30.176C119.444 30.752 118.706 31.04 117.842 31.04H101.858C101.57 31.04 101.426 31.202 101.426 31.526C101.75 38.114 105.008 41.408 111.2 41.408C113.252 41.408 115.358 41.03 117.518 40.274C117.914 40.13 118.292 40.184 118.652 40.436C119.012 40.652 119.192 40.976 119.192 41.408C119.192 42.632 118.634 43.388 117.518 43.676C115.214 44.252 112.982 44.54 110.822 44.54ZM137.183 44.54C132.935 44.54 129.659 43.316 127.355 40.868C125.087 38.384 123.953 34.748 123.953 29.96C123.953 25.208 125.051 21.59 127.247 19.106C129.479 16.622 132.611 15.38 136.643 15.38C138.515 15.38 140.495 15.578 142.583 15.974C143.087 16.082 143.501 16.352 143.825 16.784C144.185 17.18 144.365 17.648 144.365 18.188C144.365 18.62 144.167 18.962 143.771 19.214C143.411 19.466 143.015 19.538 142.583 19.43C140.747 18.962 138.857 18.728 136.913 18.728C131.153 18.728 128.273 22.472 128.273 29.96C128.273 33.848 129.029 36.692 130.541 38.492C132.053 40.292 134.357 41.192 137.453 41.192C139.469 41.192 141.305 40.922 142.961 40.382C143.357 40.238 143.735 40.292 144.095 40.544C144.455 40.796 144.635 41.138 144.635 41.57C144.635 42.11 144.473 42.596 144.149 43.028C143.825 43.46 143.393 43.748 142.853 43.892C141.161 44.324 139.271 44.54 137.183 44.54ZM154.094 43.406C153.698 43.802 153.212 44 152.636 44C152.06 44 151.574 43.802 151.178 43.406C150.782 43.01 150.584 42.524 150.584 41.948V5.552C150.584 4.976 150.782 4.49 151.178 4.094C151.574 3.698 152.06 3.5 152.636 3.5C153.212 3.5 153.698 3.698 154.094 4.094C154.49 4.49 154.688 4.976 154.688 5.552V28.394C154.688 28.43 154.706 28.448 154.742 28.448L154.85 28.394L166.514 17.648C167.738 16.496 169.214 15.92 170.942 15.92C171.41 15.92 171.716 16.136 171.86 16.568C172.04 17 171.968 17.36 171.644 17.648L159.116 29.096C158.9 29.312 158.882 29.528 159.062 29.744L171.806 42.218C172.094 42.506 172.148 42.884 171.968 43.352C171.788 43.784 171.482 44 171.05 44C169.358 44 167.918 43.406 166.73 42.218L154.85 30.446C154.814 30.41 154.778 30.392 154.742 30.392C154.706 30.392 154.688 30.41 154.688 30.446V41.948C154.688 42.524 154.49 43.01 154.094 43.406ZM179.984 43.406C179.588 43.802 179.102 44 178.526 44C177.95 44 177.446 43.802 177.014 43.406C176.618 43.01 176.42 42.524 176.42 41.948V17.918C176.42 17.378 176.618 16.91 177.014 16.514C177.41 16.118 177.878 15.92 178.418 15.92C178.958 15.92 179.426 16.118 179.822 16.514C180.218 16.91 180.416 17.378 180.416 17.918L180.47 19.7C180.47 19.736 180.488 19.754 180.524 19.754C180.596 19.754 180.632 19.718 180.632 19.646C182.684 16.802 185.132 15.38 187.976 15.38C189.704 15.38 191.09 15.758 192.134 16.514C193.214 17.27 194.096 18.53 194.78 20.294C194.78 20.366 194.798 20.402 194.834 20.402C194.906 20.402 194.942 20.366 194.942 20.294C196.958 17.018 199.586 15.38 202.826 15.38C205.706 15.38 207.776 16.208 209.036 17.864C210.332 19.52 210.98 22.292 210.98 26.18V41.948C210.98 42.524 210.782 43.01 210.386 43.406C210.026 43.802 209.558 44 208.982 44C208.406 44 207.92 43.802 207.524 43.406C207.128 43.01 206.93 42.524 206.93 41.948V27.26C206.93 23.912 206.534 21.644 205.742 20.456C204.986 19.232 203.636 18.62 201.692 18.62C200.36 18.62 199.046 19.34 197.75 20.78C196.454 22.184 195.806 23.642 195.806 25.154V41.948C195.806 42.524 195.608 43.01 195.212 43.406C194.816 43.802 194.33 44 193.754 44C193.178 44 192.692 43.802 192.296 43.406C191.9 43.01 191.702 42.524 191.702 41.948V27.26C191.702 23.912 191.306 21.644 190.514 20.456C189.758 19.232 188.426 18.62 186.518 18.62C185.186 18.62 183.854 19.34 182.522 20.78C181.226 22.184 180.578 23.642 180.578 25.154V41.948C180.578 42.524 180.38 43.01 179.984 43.406ZM223.218 43.352L213.768 17.972C213.588 17.468 213.642 17 213.93 16.568C214.254 16.136 214.686 15.92 215.226 15.92C215.874 15.92 216.45 16.118 216.954 16.514C217.494 16.874 217.872 17.36 218.088 17.972L225.486 38.978C225.486 39.014 225.504 39.032 225.54 39.032C225.612 39.032 225.648 39.014 225.648 38.978L233.802 17.864C234.018 17.288 234.378 16.82 234.882 16.46C235.422 16.1 236.016 15.92 236.664 15.92C237.168 15.92 237.546 16.136 237.798 16.568C238.086 16.964 238.14 17.396 237.96 17.864L223.11 53.936C222.858 54.512 222.462 54.98 221.922 55.34C221.418 55.7 220.842 55.88 220.194 55.88C219.69 55.88 219.312 55.664 219.06 55.232C218.808 54.836 218.772 54.404 218.952 53.936L223.218 44.216C223.326 43.928 223.326 43.64 223.218 43.352Z" fill="white"/>
<path d="M246.078 22.602C245.25 22.602 244.53 22.314 243.918 21.738C243.306 21.126 243 20.406 243 19.578C243 18.75 243.306 18.03 243.918 17.418C244.53 16.806 245.25 16.5 246.078 16.5H248.238C248.526 16.5 248.67 16.338 248.67 16.014V9.318C248.67 8.49 248.976 7.77 249.588 7.158C250.2 6.546 250.92 6.24 251.748 6.24H254.34C255.168 6.24 255.888 6.546 256.5 7.158C257.112 7.77 257.418 8.49 257.418 9.318V16.014C257.418 16.338 257.58 16.5 257.904 16.5H263.196C264.024 16.5 264.726 16.806 265.302 17.418C265.914 18.03 266.22 18.75 266.22 19.578C266.22 20.406 265.914 21.126 265.302 21.738C264.726 22.314 264.024 22.602 263.196 22.602H257.904C257.58 22.602 257.418 22.764 257.418 23.088V32.322C257.418 34.59 257.616 36.03 258.012 36.642C258.444 37.254 259.38 37.56 260.82 37.56C261.576 37.56 262.17 37.524 262.602 37.452C263.394 37.344 264.096 37.524 264.708 37.992C265.32 38.46 265.626 39.072 265.626 39.828V40.26C265.626 41.16 265.338 41.952 264.762 42.636C264.186 43.32 263.448 43.716 262.548 43.824C261.432 43.968 260.136 44.04 258.66 44.04C254.988 44.04 252.396 43.266 250.884 41.718C249.408 40.134 248.67 37.308 248.67 33.24V23.088C248.67 22.764 248.526 22.602 248.238 22.602H246.078ZM275.082 43.5C274.254 43.5 273.534 43.194 272.922 42.582C272.31 41.97 272.004 41.25 272.004 40.422V18.498C272.004 17.67 272.31 16.95 272.922 16.338C273.534 15.726 274.254 15.42 275.082 15.42H278.106C278.934 15.42 279.654 15.726 280.266 16.338C280.878 16.95 281.184 17.67 281.184 18.498V40.422C281.184 41.25 280.878 41.97 280.266 42.582C279.654 43.194 278.934 43.5 278.106 43.5H275.082ZM275.082 10.02C274.254 10.02 273.534 9.714 272.922 9.102C272.31 8.49 272.004 7.77 272.004 6.942V6.078C272.004 5.25 272.31 4.53 272.922 3.918C273.534 3.306 274.254 3 275.082 3H278.106C278.934 3 279.654 3.306 280.266 3.918C280.878 4.53 281.184 5.25 281.184 6.078V6.942C281.184 7.77 280.878 8.49 280.266 9.102C279.654 9.714 278.934 10.02 278.106 10.02H275.082ZM299.466 44.04C294.822 44.04 291.258 42.816 288.774 40.368C286.29 37.92 285.048 34.284 285.048 29.46C285.048 24.744 286.236 21.144 288.612 18.66C291.024 16.14 294.462 14.88 298.926 14.88C300.402 14.88 302.364 15.042 304.812 15.366C305.712 15.51 306.432 15.924 306.972 16.608C307.548 17.256 307.836 18.03 307.836 18.93V19.47C307.836 20.226 307.53 20.838 306.918 21.306C306.306 21.774 305.622 21.936 304.866 21.792C303.39 21.54 301.86 21.414 300.276 21.414C298.224 21.414 296.694 22.062 295.686 23.358C294.714 24.618 294.228 26.652 294.228 29.46C294.228 32.34 294.75 34.41 295.794 35.67C296.874 36.894 298.548 37.506 300.816 37.506C302.508 37.506 304.02 37.362 305.352 37.074C306.108 36.894 306.774 37.038 307.35 37.506C307.962 37.974 308.268 38.586 308.268 39.342V39.882C308.268 40.782 307.98 41.592 307.404 42.312C306.828 42.996 306.108 43.41 305.244 43.554C303.264 43.878 301.338 44.04 299.466 44.04ZM315.745 43.5C314.917 43.5 314.197 43.194 313.585 42.582C313.009 41.97 312.721 41.25 312.721 40.422V6.078C312.721 5.25 313.009 4.53 313.585 3.918C314.197 3.306 314.917 3 315.745 3H318.391C319.219 3 319.921 3.306 320.497 3.918C321.109 4.53 321.415 5.25 321.415 6.078V26.004C321.415 26.04 321.433 26.058 321.469 26.058L321.577 26.004L328.327 17.796C329.623 16.212 331.279 15.42 333.295 15.42H337.183C337.759 15.42 338.173 15.69 338.425 16.23C338.713 16.77 338.659 17.274 338.263 17.742L329.029 28.596C328.849 28.812 328.849 29.046 329.029 29.298L338.371 41.124C338.731 41.628 338.767 42.15 338.479 42.69C338.227 43.23 337.795 43.5 337.183 43.5H333.295C331.279 43.5 329.641 42.69 328.381 41.07L321.577 32.214C321.541 32.178 321.505 32.16 321.469 32.16C321.433 32.16 321.415 32.178 321.415 32.214V40.422C321.415 41.25 321.109 41.97 320.497 42.582C319.921 43.194 319.219 43.5 318.391 43.5H315.745ZM351.377 20.766C349.757 20.766 348.533 21.198 347.705 22.062C346.877 22.89 346.355 24.33 346.139 26.382C346.139 26.67 346.265 26.814 346.517 26.814H355.643C355.967 26.814 356.129 26.652 356.129 26.328C355.985 22.62 354.401 20.766 351.377 20.766ZM352.727 44.04C347.831 44.04 344.051 42.798 341.387 40.314C338.759 37.83 337.445 34.212 337.445 29.46C337.445 24.744 338.615 21.144 340.955 18.66C343.331 16.14 346.751 14.88 351.215 14.88C359.783 14.88 364.139 19.56 364.283 28.92C364.283 29.784 363.941 30.522 363.257 31.134C362.609 31.71 361.853 31.998 360.989 31.998H346.571C346.211 31.998 346.067 32.16 346.139 32.484C346.427 34.464 347.183 35.886 348.407 36.75C349.667 37.578 351.539 37.992 354.023 37.992C355.643 37.992 357.389 37.758 359.261 37.29C360.017 37.11 360.683 37.254 361.259 37.722C361.871 38.19 362.177 38.802 362.177 39.558V39.666C362.177 40.566 361.889 41.394 361.313 42.15C360.773 42.87 360.071 43.302 359.207 43.446C357.119 43.842 354.959 44.04 352.727 44.04ZM368.316 22.602C367.488 22.602 366.768 22.314 366.156 21.738C365.544 21.126 365.238 20.406 365.238 19.578C365.238 18.75 365.544 18.03 366.156 17.418C366.768 16.806 367.488 16.5 368.316 16.5H370.476C370.764 16.5 370.908 16.338 370.908 16.014V9.318C370.908 8.49 371.214 7.77 371.826 7.158C372.438 6.546 373.158 6.24 373.986 6.24H376.578C377.406 6.24 378.126 6.546 378.738 7.158C379.35 7.77 379.656 8.49 379.656 9.318V16.014C379.656 16.338 379.818 16.5 380.142 16.5H385.434C386.262 16.5 386.964 16.806 387.54 17.418C388.152 18.03 388.458 18.75 388.458 19.578C388.458 20.406 388.152 21.126 387.54 21.738C386.964 22.314 386.262 22.602 385.434 22.602H380.142C379.818 22.602 379.656 22.764 379.656 23.088V32.322C379.656 34.59 379.854 36.03 380.25 36.642C380.682 37.254 381.618 37.56 383.058 37.56C383.814 37.56 384.408 37.524 384.84 37.452C385.632 37.344 386.334 37.524 386.946 37.992C387.558 38.46 387.864 39.072 387.864 39.828V40.26C387.864 41.16 387.576 41.952 387 42.636C386.424 43.32 385.686 43.716 384.786 43.824C383.67 43.968 382.374 44.04 380.898 44.04C377.226 44.04 374.634 43.266 373.122 41.718C371.646 40.134 370.908 37.308 370.908 33.24V23.088C370.908 22.764 370.764 22.602 370.476 22.602H368.316Z" fill="#6E3DD9"/>
<path fill-rule="evenodd" clip-rule="evenodd" d="M24 0C23.4477 0 23.0087 0.451075 22.9177 0.995812C22.4434 3.83559 19.9745 6 17 6C14.0255 6 11.5566 3.83559 11.0823 0.995813C10.9913 0.451075 10.5523 0 10 0H1C0.447715 0 0 0.447714 0 0.999999V59C0 59.5523 0.447715 60 1 60H10C10.5523 60 10.9913 59.5489 11.0823 59.0042C11.5566 56.1644 14.0255 54 17 54C19.9745 54 22.4434 56.1644 22.9177 59.0042C23.0087 59.5489 23.4477 60 24 60H33C33.5523 60 34 59.5523 34 59V1C34 0.447715 33.5523 0 33 0H24ZM17 19C23.0751 19 28 23.9249 28 30C28 36.0751 23.0751 41 17 41C10.9249 41 6 36.0751 6 30C6 23.9249 10.9249 19 17 19Z" fill="#6E3DD9"/>
<path fill-rule="evenodd" clip-rule="evenodd" d="M24.1289 26.0123C24.6744 26.6357 24.6112 27.5834 23.9878 28.1289L15.9878 35.1289C15.3669 35.6722 14.4238 35.612 13.8769 34.9943L10.8769 31.6054C10.3278 30.9851 10.3855 30.0371 11.0058 29.488C11.626 28.9389 12.574 28.9966 13.1232 29.6169L15.1346 31.8891L22.0123 25.8712C22.6357 25.3256 23.5834 25.3888 24.1289 26.0123Z" fill="#6E3DD9"/>
</svg>
